<?xml version="1.0" encoding="UTF-8"?><svg id="b" xmlns="http://www.w3.org/2000/svg" width="552.74" height="526.09" viewBox="0 0 552.74 526.09"><defs><style>.d{fill:#0080e3;}</style></defs><g id="c"><path class="d" d="m266.91,429.06c-13.42-6.06-20.44-21.19-15.97-35.22,1.52-4.77,3.57-9.45,6.18-13.97,8.49-14.7,21.44-25.22,36.16-30.82.26-.11.52-.21.78-.3,5.62-2.12,11.35-3.95,17.16-5.51,11.43-3.06,23.18-5.03,35.05-5.87.22-.02.43-.03.65-.04.78-.05,1.57-.1,2.36-.14.01,0,.03,0,.04,0,14.62-.79,29.39.14,43.97,2.87.03,0,.04,0,.05,0,0,0,0,0,0,0l-.1-.02s.01,0,.05,0c20.31,3.81,41.07,5.48,61.42,5.03,33.56-.74,66.73-7.16,98.03-18.85-5.19,12.94-11.38,25.67-18.55,38.09-8.91,15.44-19,29.78-30.09,42.97-30.59,36.43-68.78,64.11-110.82,82.03-31.76,13.63-69.33,12.63-101.56-5.98-7.99-4.61-15.21-10.05-21.6-16.15-.85-.8-1.7-1.63-2.51-2.46-4.87-5.02-8.89-10.67-12.03-16.74-1.06-2.05,1.05-4.28,3.18-3.41,66.76,27.12,142.27,12.3,193.84-34.94-3.92,2.93-7.95,5.69-12.07,8.29-52.11,32.82-117.49,36.48-173.62,11.14h0Z"/><path class="d" d="m117.44,227.39c11.95-8.59,28.55-7.1,38.46,3.77,3.37,3.7,6.4,7.81,9,12.32,8.48,14.69,11.11,31.15,8.6,46.68-.04.28-.08.56-.13.83-.98,5.92-2.25,11.8-3.8,17.6-3.06,11.42-7.23,22.57-12.43,33.26-.1.2-.19.39-.29.59-.35.71-.7,1.41-1.05,2.11,0,.01-.01.03-.02.04-6.62,13.04-14.81,25.36-24.45,36.61-.02.02-.03.03-.03.04,0,0,0,0,0,0l.07-.08s0,.01-.03.04c-13.44,15.67-25.26,32.8-35.03,50.64-16.12,29.41-27.14,61.31-32.66,94.24-8.6-10.96-16.53-22.67-23.7-35.08-8.91-15.43-16.28-31.31-22.15-47.5C1.55,398.84-3.33,351.97,2.16,306.63c4.08-34.29,23.71-66.3,55.92-84.89,7.99-4.61,16.3-8.14,24.76-10.62,1.12-.34,2.26-.66,3.39-.94,6.77-1.71,13.67-2.36,20.49-2.04,2.3.11,3.18,3.04,1.36,4.46-56.82,44.22-81.72,116.96-66.6,185.18-.58-4.86-.96-9.72-1.14-14.58-2.37-61.49,27.13-119.88,77.1-155.8h0Z"/><path class="d" d="m368.53,199.19c1.46,14.66-8.14,28.31-22.53,31.46-4.89,1.07-9.98,1.63-15.19,1.63-16.99,0-32.58-5.96-44.79-15.91-.22-.17-.44-.35-.65-.53-4.65-3.81-9.1-7.86-13.36-12.11-8.37-8.37-15.96-17.57-22.62-27.43-.12-.18-.24-.36-.36-.54-.44-.65-.87-1.31-1.3-1.97,0-.01-.02-.03-.02-.04-8-12.27-14.58-25.54-19.51-39.53-.01-.03-.02-.04-.02-.05,0,0,0,0,0,0l.03.1s0-.01-.02-.05c-6.86-19.5-15.79-38.32-26.37-55.73-17.43-28.7-39.58-54.23-65.37-75.51C150.26,1.01,164.38,0,178.73,0c17.84,0,35.3,1.56,52.28,4.58,46.86,8.28,89.95,27.52,126.52,54.98,27.69,20.7,45.62,53.75,45.62,90.99,0,9.23-1.1,18.21-3.18,26.79-.27,1.14-.56,2.28-.88,3.41-1.91,6.73-4.8,13.04-8.49,18.79-1.24,1.94-4.23,1.23-4.55-1.05-9.9-71.41-60.51-129.42-127.24-150.47,4.5,1.93,8.91,4.04,13.22,6.31,54.51,28.73,90.38,83.55,96.5,144.86h0Z"/></g></svg>