<?xml version="1.0" encoding="UTF-8"?><svg id="b" xmlns="http://www.w3.org/2000/svg" width="578.81" height="559.21" viewBox="0 0 578.81 559.21"><g id="c"><g id="d"><path d="m227.78,146.51l.05.27.27.66c5.12,14.49,12,28.41,20.44,41.36h0l.03.04c.45.69.91,1.38,1.37,2.07l.39.57c6.98,10.34,14.98,20.04,23.78,28.84,4.44,4.44,9.15,8.71,13.98,12.68.28.24.56.47.84.68,14.32,11.64,32.4,18.05,50.91,18.05,5.83,0,11.64-.63,17.29-1.86,16.79-3.67,28.84-17.93,30.33-34.67,2.31,3.04,5.96,4.98,9.99,4.98,4.25,0,8.15-2.14,10.45-5.72,4.27-6.65,7.52-13.86,9.67-21.41.33-1.15.65-2.4.98-3.8,2.29-9.45,3.45-19.23,3.45-29.06,0-19.77-4.54-38.65-13.5-56.13-8.54-16.66-21-31.41-36.03-42.65-38.31-28.77-83.43-48.38-130.46-56.69-17.63-3.13-35.77-4.72-53.9-4.72h0c-14.63,0-29.3,1.04-43.6,3.08l-22.42,3.2,17.47,14.41c25.03,20.65,46.24,45.14,63.03,72.8,10.15,16.7,18.62,34.54,25.17,53.02h.02ZM145.94,12.97c13.78-1.97,27.87-2.98,42.18-2.98,17.79,0,35.22,1.56,52.16,4.57,46.75,8.26,89.73,27.46,126.21,54.85,27.63,20.65,45.51,53.62,45.51,90.77,0,9.21-1.1,18.16-3.18,26.73-.27,1.14-.56,2.28-.88,3.4-1.91,6.71-4.79,13.01-8.47,18.75-.5.77-1.27,1.12-2.04,1.12-1.16,0-2.31-.8-2.5-2.17-9.87-71.24-60.37-129.11-126.94-150.11,4.49,1.93,8.89,4.03,13.19,6.29,54.38,28.66,90.16,83.35,96.27,144.51h0c1.46,14.62-8.12,28.25-22.47,31.39-4.88,1.07-9.95,1.63-15.16,1.63-16.95,0-32.5-5.94-44.68-15.88-.22-.17-.44-.35-.65-.53-4.63-3.8-9.08-7.84-13.33-12.08-8.35-8.35-15.92-17.53-22.57-27.37-.12-.18-.24-.36-.36-.54-.44-.65-.87-1.31-1.3-1.96,0,0-.02-.02-.02-.04-7.98-12.24-14.55-25.48-19.46-39.43,0,.02.01.03.01.04,0,0,0-.03-.01-.04-6.84-19.45-15.76-38.23-26.31-55.59-17.39-28.64-39.49-54.1-65.21-75.33h0Z"/><path d="m41.2,505.18c7.32,12.67,15.55,24.86,24.46,36.22l13.98,17.81,3.74-22.34c5.36-32,15.97-62.61,31.53-90.99,9.36-17.08,20.53-33.28,33.21-48.16l.36-.42.09-.09.24-.3h0c10.02-11.7,18.65-24.64,25.67-38.46h0l.03-.06c.37-.72.73-1.46,1.1-2.2l.3-.62c5.46-11.21,9.87-23,13.09-35.02,1.63-6.07,2.97-12.27,3.99-18.45.07-.36.12-.72.17-1.07,2.92-18.22-.56-37.08-9.82-53.11-2.91-5.05-6.36-9.77-10.26-14.04-7.28-7.99-17.71-12.57-28.63-12.57-5.77,0-11.37,1.24-16.51,3.62,1.13-2.67,1.3-5.71.37-8.64-1.59-5.02-6.02-8.42-11.28-8.67-1.26-.06-2.53-.09-3.79-.09-6.61,0-13.2.82-19.59,2.42-1.16.29-2.4.63-3.77,1.04-9.33,2.74-18.38,6.62-26.9,11.54-17.12,9.88-31.2,23.26-41.86,39.75-10.16,15.73-16.71,33.89-18.92,52.53-5.76,47.56-.18,96.44,16.13,141.33,6.1,16.83,13.8,33.33,22.86,49.03h.01Zm-29.07-189.18c4.07-34.25,23.68-66.23,55.86-84.8,7.98-4.61,16.28-8.13,24.74-10.61,1.12-.34,2.25-.65,3.38-.94,5.67-1.43,11.42-2.12,17.15-2.12,1.11,0,2.22.03,3.32.08,2.3.11,3.18,3.04,1.36,4.45-56.76,44.17-81.63,116.84-66.53,184.98-.58-4.85-.96-9.71-1.14-14.57-2.36-61.42,27.1-119.75,77.02-155.63h0c5.16-3.71,11.2-5.54,17.18-5.54,7.85,0,15.62,3.14,21.24,9.31,3.37,3.69,6.39,7.8,8.99,12.31,8.47,14.68,11.1,31.12,8.59,46.63-.04.28-.08.56-.13.83-.98,5.91-2.25,11.78-3.8,17.58-3.06,11.41-7.22,22.55-12.42,33.23-.1.2-.19.39-.29.59-.35.7-.7,1.41-1.05,2.11,0,.01-.01.03-.02.04-6.61,13.03-14.79,25.33-24.42,36.57h0l-.02.02c-13.42,15.65-25.22,32.75-34.98,50.56-16.11,29.37-27.11,61.25-32.63,94.14-8.59-10.95-16.51-22.64-23.67-35.04-8.9-15.41-16.26-31.28-22.12-47.45-16.22-44.62-21.09-91.44-15.6-136.73h0Z"/><path d="m256.04,450.31c-2.27,3.73-2.43,8.28-.42,12.17,3.63,7.02,8.24,13.44,13.71,19.08.84.86,1.75,1.77,2.8,2.75,7.04,6.71,14.92,12.6,23.44,17.52,18.73,10.82,40.01,16.53,61.53,16.53,16.86,0,33.27-3.37,48.78-10.03,44.07-18.79,83.61-48.06,114.33-84.64,11.53-13.7,21.97-28.61,31.03-44.32,7.32-12.67,13.75-25.89,19.13-39.3l8.44-21.02-21.22,7.92c-30.39,11.35-62.21,17.47-94.56,18.18-2.09.05-4.21.07-6.31.07-17.68,0-35.46-1.65-52.84-4.9h-.06s-.02-.01-.02-.01h-.06c-11.7-2.2-23.7-3.3-35.66-3.3-3.5,0-7.05.1-10.55.28h-.05c-.82.04-1.65.09-2.47.15l-.68.05c-12.45.88-24.85,2.95-36.87,6.18-6.07,1.63-12.11,3.57-17.97,5.77-.34.12-.68.25-1.01.39-17.24,6.58-31.83,19.03-41.09,35.06-2.91,5.05-5.28,10.4-7.03,15.91-5.21,16.37,1.1,33.92,14.83,43.58-3.74.48-7.15,2.65-9.14,5.92h-.01Zm10.68,3.98c.31,0,.64.06.96.19,22.4,9.1,45.78,13.47,68.91,13.47,45.69,0,90.38-17.04,124.55-48.35-3.91,2.92-7.93,5.68-12.04,8.27-29.31,18.46-62.83,27.68-96.53,27.68-26.1,0-52.3-5.53-76.75-16.56h0c-13.39-6.05-20.4-21.15-15.94-35.16,1.52-4.76,3.56-9.43,6.17-13.94,8.47-14.68,21.4-25.18,36.09-30.76.26-.11.52-.21.78-.3,5.61-2.11,11.33-3.95,17.13-5.5,11.41-3.06,23.14-5.02,34.98-5.86.22-.02.43-.03.65-.04.78-.05,1.57-.1,2.35-.14h.04c3.33-.18,6.67-.27,10.01-.27,11.3,0,22.64,1.03,33.87,3.13h-.05.05c18.1,3.4,36.56,5.1,54.77,5.1,2.18,0,4.36-.02,6.53-.07,33.49-.74,66.6-7.14,97.84-18.81-5.18,12.92-11.35,25.62-18.51,38.02-8.9,15.41-18.96,29.72-30.03,42.89-30.53,36.36-68.65,63.98-110.61,81.88-14.12,6.06-29.4,9.22-44.84,9.22-19.22,0-38.69-4.89-56.53-15.19-7.98-4.61-15.18-10.03-21.56-16.12-.85-.8-1.69-1.62-2.5-2.46-4.86-5.01-8.87-10.65-12-16.71-.89-1.73.48-3.6,2.21-3.6h0Z"/></g></g></svg>