<?xml version="1.0" encoding="UTF-8"?><svg id="b" xmlns="http://www.w3.org/2000/svg" width="6.71" height="6.38" viewBox="0 0 6.71 6.38"><defs><style>.d{fill:#0080e3;}</style></defs><g id="c"><path class="d" d="m3.24,5.2c-.47-.24-.04-.86.32-.97.38-.15.81-.18,1.21-.11.65.12,1.32.06,1.93-.17-.46,1.28-2.5,3.04-3.6,1.48-.01-.02.01-.05.04-.04.81.33,1.72.15,2.35-.42-.64.49-1.52.57-2.25.24h0Z"/><path class="d" d="m1.43,2.76c.45-.29.76.4.68.76-.06.41-.24.79-.51,1.1h0c-.43.5-.71,1.11-.82,1.76C-.1,5.34-.6,2.7,1.3,2.53c.03,0,.04.04.02.05-.69.54-.99,1.42-.81,2.24-.1-.8.27-1.6.92-2.07h0Z"/><path class="d" d="m4.48,2.42c.02.53-.73.46-1,.21-.18-.15-.34-.32-.46-.52,0,0,0,0,0,0-.1-.15-.18-.31-.24-.48h0c-.22-.62-.61-1.17-1.11-1.59,1.34-.24,3.88.65,3.08,2.38-.02.02-.05.01-.06-.01-.12-.87-.73-1.57-1.54-1.82.74.32,1.25,1.03,1.33,1.83h0Z"/></g></svg>